<svg xmlns="http://www.w3.org/2000/svg" version="1.1" xmlns:xlink="http://www.w3.org/1999/xlink" xmlns:svgjs="http://svgjs.dev/svgjs" width="1000" height="176" viewBox="0 0 1000 176"><g transform="matrix(1,0,0,1,-0.6060603916536706,0.184632436083632)"><svg viewBox="0 0 396 70" data-background-color="#ffffff" preserveAspectRatio="xMidYMid meet" height="176" width="1000" xmlns="http://www.w3.org/2000/svg" xmlns:xlink="http://www.w3.org/1999/xlink"><g id="tight-bounds" transform="matrix(1,0,0,1,0.24000008490509117,-0.07343335526053352)"><svg viewBox="0 0 395.52 70.14686671052105" height="70.14686671052105" width="395.52"><g><svg viewBox="0 0 491.68273698560705 87.20166721074423" height="70.14686671052105" width="395.52"><g transform="matrix(1,0,0,1,0,24.621628233240052)"><svg viewBox="0 0 395.5199999999999 37.95841074426413" height="37.95841074426413" width="395.5199999999999"><g id="textblocktransform"><svg viewBox="0 0 395.5199999999999 37.95841074426413" height="37.95841074426413" width="395.5199999999999" id="textblock"><g><svg viewBox="0 0 395.5199999999999 37.95841074426413" height="37.95841074426413" width="395.5199999999999"><g transform="matrix(1,0,0,1,0,0)"><svg width="395.5199999999999" viewBox="4.050000190734863 -33.95000076293945 357.3700256347656 34.29999923706055" height="37.95841074426413" data-palette-color="#89939e"><path d="M9.15 0L4.05 0 4.05-33.7 9.15-33.7 9.15 0ZM35.95-33.7L35.95-29.4 22-29.4 22-18.35 34.25-18.35 34.25-14.05 22-14.05 22 0 16.85 0 16.85-33.7 35.95-33.7ZM51.1-29.4L46.7-29.4 46.7-17.1 51.35-17.1Q54.55-17.1 56.2-18.78 57.85-20.45 57.85-23.25L57.85-23.25Q57.85-29.4 51.1-29.4L51.1-29.4ZM65.2 0L59.05 0 51.15-12.8 46.7-12.8 46.7 0 41.55 0 41.55-33.7 50.95-33.7Q56.75-33.7 59.9-30.88 63.05-28.05 63.05-23.2L63.05-23.2Q63-19.65 61.25-17.18 59.5-14.7 56.4-13.6L56.4-13.6 65.2 0ZM77.94-14.25L77.39-12.55 88.19-12.55 87.64-14.25Q85.74-20.15 84.54-24.03 83.34-27.9 83.09-28.85L83.09-28.85 82.84-29.8Q82.29-27.45 77.94-14.25L77.94-14.25ZM97.74 0L92.24 0 89.59-8.25 75.99-8.25 73.29 0 67.84 0 79.49-33.7 86.24-33.7 97.74 0ZM107.59 0L102.49 0 105.09-33.7 111.19-33.7 115.69-21.4Q116.89-18.25 118.09-14.73 119.29-11.2 119.89-9.25L119.89-9.25 120.54-7.3Q122.84-14.1 125.59-21.4L125.59-21.4 130.29-33.7 136.39-33.7 139.49 0 134.39 0 133.19-13.2 132.14-26.7Q129.89-20.35 127.24-13.2L127.24-13.2 122.54-0.65 118.49-0.65 113.94-13.2 109.39-26.5Q109.39-24.3 108.59-13.2L108.59-13.2 107.59 0ZM151.49-14.7L151.49-4.3 165.79-4.3 165.79 0 146.34 0 146.34-33.7 165.54-33.7 165.54-29.4 151.49-29.4 151.49-19 163.94-19 163.94-14.7 151.49-14.7ZM183.24-11.25L171.04-11.25 171.04-15.45 183.24-15.45 183.24-11.25ZM199.08-29.4L194.68-29.4 194.68-17.1 199.33-17.1Q202.53-17.1 204.18-18.78 205.83-20.45 205.83-23.25L205.83-23.25Q205.83-29.4 199.08-29.4L199.08-29.4ZM213.18 0L207.03 0 199.13-12.8 194.68-12.8 194.68 0 189.53 0 189.53-33.7 198.93-33.7Q204.73-33.7 207.88-30.88 211.03-28.05 211.03-23.2L211.03-23.2Q210.98-19.65 209.23-17.18 207.48-14.7 204.38-13.6L204.38-13.6 213.18 0ZM223.08-14.7L223.08-4.3 237.38-4.3 237.38 0 217.93 0 217.93-33.7 237.13-33.7 237.13-29.4 223.08-29.4 223.08-19 235.53-19 235.53-14.7 223.08-14.7ZM261.83-32.35L261.83-32.35 261.83-27.25Q258.48-29.35 254.23-29.35L254.23-29.35Q251.48-29.35 249.9-28.13 248.33-26.9 248.33-24.9 248.33-22.9 249.88-21.7 251.43-20.5 254.63-19.1L254.63-19.1Q256.73-18.2 257.9-17.55 259.08-16.9 260.6-15.73 262.13-14.55 262.85-12.93 263.58-11.3 263.58-9.2L263.58-9.2Q263.58-4.75 260.43-2.2 257.28 0.35 252.28 0.35L252.28 0.35Q246.73 0.35 243.08-1.8L243.08-1.8 243.08-7.15Q247.03-4.2 252.23-4.2L252.23-4.2Q254.98-4.2 256.58-5.48 258.18-6.75 258.18-9L258.18-9Q258.18-10.35 257.23-11.48 256.28-12.6 255.18-13.18 254.08-13.75 251.88-14.75L251.88-14.75Q250.58-15.35 250.05-15.6 249.53-15.85 248.33-16.5 247.13-17.15 246.55-17.6 245.98-18.05 245.13-18.85 244.28-19.65 243.9-20.45 243.53-21.25 243.2-22.33 242.88-23.4 242.88-24.65L242.88-24.65Q242.88-28.95 246-31.45 249.13-33.95 254.08-33.95L254.08-33.95Q258.63-33.95 261.83-32.35ZM275.18 0L270.08 0 270.08-33.7 275.18-33.7 275.18 0ZM282.17-33.7L305.02-33.7 305.02-29.75 287.97-4.25 305.72-4.25 305.72 0 281.92 0 281.92-4.05 298.92-29.45 282.17-29.45 282.17-33.7ZM317.22-14.7L317.22-4.3 331.52-4.3 331.52 0 312.07 0 312.07-33.7 331.27-33.7 331.27-29.4 317.22-29.4 317.22-19 329.67-19 329.67-14.7 317.22-14.7ZM347.32-29.4L342.92-29.4 342.92-17.1 347.57-17.1Q350.77-17.1 352.42-18.78 354.07-20.45 354.07-23.25L354.07-23.25Q354.07-29.4 347.32-29.4L347.32-29.4ZM361.42 0L355.27 0 347.37-12.8 342.92-12.8 342.92 0 337.77 0 337.77-33.7 347.17-33.7Q352.97-33.7 356.12-30.88 359.27-28.05 359.27-23.2L359.27-23.2Q359.22-19.65 357.47-17.18 355.72-14.7 352.62-13.6L352.62-13.6 361.42 0Z" opacity="1" transform="matrix(1,0,0,1,0,0)" fill="#89939e" class="wordmark-text-0" data-fill-palette-color="primary" id="text-0"></path></svg></g></svg></g></svg></g></svg></g><g transform="matrix(1,0,0,1,404.4810697748628,0)"><svg viewBox="0 0 87.20166721074423 87.20166721074423" height="87.20166721074423" width="87.20166721074423"><g><svg></svg></g><g id="icon-0"><svg viewBox="0 0 87.20166721074423 87.20166721074423" height="87.20166721074423" width="87.20166721074423"><g><rect width="79.28892333421375" height="79.28892333421375" x="3.9563719382652422" y="3.9563719382652422" fill="#89939e" data-fill-palette-color="accent"></rect><rect width="79.28892333421375" height="79.28892333421375" x="-5.329070518200751e-15" y="-5.329070518200751e-15" fill="#89939e" opacity="0.5" data-fill-palette-color="accent"></rect></g><g transform="matrix(1,0,0,1,11.309424530942543,11.30391982361499)"><svg viewBox="0 0 64.58281814885915 64.59382756351425" height="64.59382756351425" width="64.58281814885915"><g><svg xmlns="http://www.w3.org/2000/svg" xmlns:xlink="http://www.w3.org/1999/xlink" version="1.1" x="0" y="0" viewBox="0.01773175597190857 0 99.98296356201172 100.00000762939453" enable-background="new 0 0 100 100" xml:space="preserve" width="64.58281814885915" height="64.59382756351425" class="icon-s-0" data-fill-palette-color="background" id="s-0"><g fill="#ffffff" data-fill-palette-color="background"><g fill="#ffffff" data-fill-palette-color="background"><path fill="#ffffff" d="M21.03 0c18.839 0.041 37.677 0.005 56.515 0.016C85.021 0.006 92.497 0.042 99.973 0c0.056 6.782 0.007 13.565 0.023 20.348-0.007 19.566 0.016 39.135-0.011 58.701-26.322-0.013-52.645-0.013-78.967 0-0.028-26.091 0-52.184-0.014-78.276C21.002 0.515 21.016 0.258 21.03 0zM24.584 3.621c0.023 23.95-0.007 47.901 0.016 71.853 23.935-0.014 47.869-0.014 71.805 0 0.021-23.951-0.009-47.902 0.014-71.854-2.319-0.057-4.643-0.008-6.963-0.024-17.979 0-35.958 0-53.937 0C31.874 3.612 28.228 3.561 24.584 3.621z" data-fill-palette-color="background"></path></g><path fill="#ffffff" d="M55.097 13.209c10.585-0.01 21.17-0.01 31.755 0 0.006 10.562 0.001 21.125 0.003 31.686-3.194 0.017-6.389 0.017-9.583 0-0.007-5.105 0.014-10.211-0.01-15.316-1.118 1-2.131 2.112-3.209 3.157-6.046 6.045-12.092 12.092-18.139 18.139-0.959 0.922-1.847 1.924-2.852 2.794-2.225-2.263-4.512-4.466-6.709-6.752 7.528-7.527 15.056-15.055 22.584-22.582 0.499-0.521 1.043-1 1.513-1.548-2.197-0.062-4.397-0.008-6.595-0.026-2.914 0.008-5.829-0.018-8.742 0.014C55.071 19.586 55.104 16.398 55.097 13.209z" data-fill-palette-color="background"></path><path fill="#ffffff" d="M0.036 53.314c1.249-0.017 2.498-0.017 3.748 0 0.019 1.104 0.005 2.207 0.01 3.312 0.03 0.188-0.123 0.412-0.323 0.405-1.146 0.016-2.292 0.003-3.438 0.004C0.022 55.795 0.02 54.555 0.036 53.314z" data-fill-palette-color="background"></path><path fill="#ffffff" d="M6.908 53.312c1.368-0.012 2.736-0.011 4.104 0 0.003 1.196 0.001 2.392 0 3.589-1.368 0-2.736 0.001-4.105-0.002C6.907 55.703 6.904 54.508 6.908 53.312z" data-fill-palette-color="background"></path><path fill="#ffffff" d="M14.136 53.314c1.368-0.004 2.738-0.04 4.104 0.02-0.008 1.184-0.013 2.369 0.001 3.555-1.369 0.025-2.738 0.007-4.107 0.01C14.123 55.703 14.12 54.508 14.136 53.314z" data-fill-palette-color="background"></path><path fill="#ffffff" d="M0.036 60.159c1.194-0.018 2.389-0.014 3.584-0.003-0.003 1.371 0.014 2.739-0.01 4.108-1.184-0.012-2.37-0.011-3.554-0.001C-0.006 62.897 0.033 61.527 0.036 60.159z" data-fill-palette-color="background"></path><path fill="#ffffff" d="M0.083 67.354c1.17 0.024 2.344 0.027 3.514-0.003 0.041 1.382 0.04 2.766 0.001 4.147-1.172-0.029-2.344-0.028-3.516-0.002-0.123-0.705-0.026-1.427-0.056-2.139C0.055 68.69-0.038 68.013 0.083 67.354z" data-fill-palette-color="background"></path><path fill="#ffffff" d="M0.055 74.588c1.186 0.01 2.371 0.012 3.555-0.001 0.023 1.369 0.007 2.738 0.01 4.107-1.195 0.012-2.39 0.015-3.584-0.002C0.033 77.325-0.005 75.954 0.055 74.588z" data-fill-palette-color="background"></path><path fill="#ffffff" d="M0.036 81.789c1.195-0.017 2.389-0.014 3.584-0.001 0.002 1.377 0.001 2.755 0.001 4.134-1.196 0-2.391 0.001-3.588-0.001C0.023 84.543 0.018 83.166 0.036 81.789z" data-fill-palette-color="background"></path><path fill="#ffffff" d="M43.155 81.816c1.197-0.004 2.392-0.001 3.589-0.001 0 1.368 0 2.737 0 4.106-1.197 0-2.392 0.001-3.589-0.001C43.145 84.553 43.144 83.184 43.155 81.816z" data-fill-palette-color="background"></path><path fill="#ffffff" d="M0.08 88.982c1.172 0.028 2.347 0.029 3.519 0 0.038 1.381 0.04 2.766 0 4.146-1.172-0.028-2.345-0.027-3.517 0-0.122-0.798-0.023-1.611-0.055-2.415C0.048 90.137-0.03 89.553 0.08 88.982z" data-fill-palette-color="background"></path><path fill="#ffffff" d="M43.203 88.982c1.171 0.028 2.346 0.029 3.518 0 0.038 1.381 0.038 2.766 0 4.146-1.172-0.028-2.346-0.027-3.518 0-0.119-0.661-0.027-1.337-0.053-2.004C43.178 90.411 43.084 89.689 43.203 88.982z" data-fill-palette-color="background"></path><path fill="#ffffff" d="M0.057 96.218c1.179 0.013 2.357 0.006 3.536 0.003 0.09 0.154 0.226 0.31 0.201 0.505-0.017 1.09 0.036 2.181-0.029 3.268-1.238-0.011-2.474-0.009-3.711 0C0.009 98.736 0.006 97.474 0.057 96.218z" data-fill-palette-color="background"></path><path fill="#ffffff" d="M43.219 96.227c1.17-0.01 2.342 0.008 3.514-0.01 0.019 1.26 0.019 2.519 0 3.778-1.234-0.01-2.471-0.02-3.705 0.005-0.102-1.173-0.03-2.359-0.036-3.537C43.048 96.404 43.161 96.285 43.219 96.227z" data-fill-palette-color="background"></path><path fill="#ffffff" d="M6.93 96.375c1.353 0.027 2.708 0.029 4.06-0.001 0.047 1.206 0.023 2.415 0.013 3.621-1.362-0.013-2.723-0.013-4.085 0C6.907 98.789 6.884 97.58 6.93 96.375z" data-fill-palette-color="background"></path><path fill="#ffffff" d="M28.56 96.374c1.353 0.03 2.708 0.028 4.061 0.001 0.047 1.205 0.023 2.414 0.013 3.62-1.362-0.013-2.725-0.013-4.085 0C28.536 98.789 28.514 97.58 28.56 96.374z" data-fill-palette-color="background"></path><path fill="#ffffff" d="M14.135 96.409c1.369-0.001 2.749-0.066 4.112 0.033-0.028 1.182-0.005 2.363-0.012 3.546-1.361 0.003-2.72-0.009-4.079 0.005C14.094 98.801 14.135 97.604 14.135 96.409z" data-fill-palette-color="background"></path><path fill="#ffffff" d="M21.303 96.439c1.375-0.094 2.762-0.03 4.142-0.031-0.005 1.195 0.062 2.399-0.034 3.592-1.364-0.029-2.73-0.004-4.095-0.014C21.309 98.806 21.33 97.623 21.303 96.439z" data-fill-palette-color="background"></path><path fill="#ffffff" d="M35.764 96.409c1.37-0.002 2.747-0.063 4.113 0.03-0.028 1.184-0.006 2.366-0.013 3.549-1.36 0.003-2.72-0.009-4.079 0.007C35.724 98.801 35.766 97.604 35.764 96.409z" data-fill-palette-color="background"></path></g></svg></g></svg></g></svg></g></svg></g></svg></g><defs></defs></svg><rect width="395.52" height="70.14686671052105" fill="none" stroke="none" visibility="hidden"></rect></g></svg></g></svg>